<?xml version="1.0" standalone="no"?>
<!DOCTYPE svg PUBLIC "-//W3C//DTD SVG 20010904//EN"
 "http://www.w3.org/TR/2001/REC-SVG-20010904/DTD/svg10.dtd">
<svg version="1.0" xmlns="http://www.w3.org/2000/svg"
 width="225.000000pt" height="225.000000pt" viewBox="0 0 225.000000 225.000000"
 preserveAspectRatio="xMidYMid meet">

<g transform="translate(0.000000,225.000000) scale(0.100000,-0.100000)"
fill="#000000" stroke="none">
<path d="M933 2196 c-364 -70 -674 -320 -814 -657 -168 -409 -75 -881 236
-1194 437 -441 1158 -429 1580 28 420 453 383 1157 -83 1569 -121 107 -284
194 -449 238 -101 28 -361 36 -470 16z m387 -30 c316 -56 602 -269 749 -555
93 -182 127 -340 118 -545 -20 -467 -340 -862 -796 -983 -83 -22 -118 -26
-251 -26 -173 -1 -242 11 -390 66 -48 19 -128 58 -176 88 -102 63 -252 205
-313 297 -65 97 -128 237 -157 347 -23 87 -27 121 -27 255 -1 108 4 176 15
225 24 107 79 245 134 336 56 94 179 230 274 301 119 91 332 181 475 201 69 9
276 5 345 -7z"/>
<path d="M936 2145 c-250 -52 -459 -178 -612 -369 -161 -202 -245 -458 -231
-710 21 -384 239 -717 582 -888 152 -76 271 -103 460 -102 124 0 165 4 239 23
384 100 667 382 767 764 30 115 37 321 15 441 -76 400 -370 719 -761 827 -104
28 -354 36 -459 14z m222 -125 c-1 -23 -1 -23 -5 -2 -2 12 -8 22 -13 22 -5 0
-11 -10 -13 -22 -2 -13 -5 -2 -6 23 0 25 2 49 6 53 10 10 32 -43 31 -74z m58
24 c1 -27 -1 -40 -3 -30 -4 15 -7 16 -14 5 -6 -9 -9 2 -9 34 0 67 25 59 26 -9z
m-180 11 c18 -44 18 -64 -1 -39 -14 18 -14 18 -16 -6 -1 -20 -3 -18 -11 13 -9
35 -6 67 7 67 3 0 13 -16 21 -35z m239 25 c3 -5 2 -10 -4 -10 -5 0 -11 -17
-13 -37 -3 -37 -4 -37 -8 10 -4 32 -1 47 7 47 6 0 15 -4 18 -10z m45 -20 c-6
-11 -8 -20 -4 -20 3 0 1 -7 -6 -15 -7 -8 -10 -22 -6 -30 3 -8 1 -15 -4 -15
-13 0 -12 16 1 63 5 20 14 37 20 37 6 0 6 -7 -1 -20z m-355 -29 c-5 -33 -3
-40 12 -44 14 -4 12 -5 -6 -6 -22 -1 -23 2 -18 34 5 28 3 35 -11 35 -15 0 -15
2 -2 10 26 17 32 11 25 -29z m406 30 c-12 -8 -12 -14 -2 -39 13 -31 9 -52 -11
-52 -7 0 -6 5 1 14 9 11 9 19 0 34 -14 22 -6 52 13 52 10 0 9 -3 -1 -9z m-473
-13 c1 -11 3 -23 11 -71 0 -5 6 -5 13 -1 7 4 8 3 4 -4 -13 -22 -24 -12 -35 32
-13 54 -13 56 -3 56 5 0 9 -6 10 -12z m-34 -60 c8 -47 4 -48 -23 -4 -24 39
-28 60 -5 31 15 -19 15 -19 9 10 -4 21 -3 25 3 15 5 -8 12 -32 16 -52z m568 1
c-9 -38 -10 -40 -11 -14 -2 29 -2 29 -16 11 -20 -26 -19 -3 1 36 23 44 39 23
26 -33z m69 22 c14 22 10 -9 -6 -51 l-13 -35 -2 30 -1 30 -14 -25 c-20 -34
-19 -19 2 32 13 31 19 38 21 24 3 -15 6 -16 13 -5z m-703 -15 c2 -11 10 -26
18 -34 8 -7 14 -18 14 -25 0 -6 -7 -2 -15 9 -13 16 -14 16 -9 2 11 -33 -5 -18
-26 22 -24 48 -25 52 -3 48 10 -2 19 -12 21 -22z m-62 -5 c-8 -12 4 -42 13
-36 4 2 7 -6 7 -18 -1 -13 4 -21 12 -19 8 1 11 -2 7 -8 -11 -18 -21 -11 -43
34 -15 32 -18 46 -9 50 18 7 19 7 13 -3z m824 -37 c-5 -20 -13 -41 -19 -47 -7
-7 -8 -3 -4 12 6 22 -12 30 -20 9 -2 -7 -7 -11 -9 -8 -9 8 42 81 51 75 5 -3 5
-21 1 -41z m-879 2 c-14 -17 24 -70 46 -62 8 3 11 1 8 -4 -12 -19 -35 -10 -55
22 -14 24 -16 35 -8 45 6 7 13 13 15 13 3 0 0 -6 -6 -14z m919 -26 c-11 -23
-18 -45 -15 -50 3 -6 2 -10 -4 -10 -20 0 -19 16 6 58 32 53 40 55 13 2z m-659
-155 c16 -9 34 -13 40 -9 6 3 24 -3 39 -15 19 -14 30 -17 32 -9 3 8 15 2 31
-15 53 -52 81 -55 117 -12 17 20 56 42 46 26 -12 -19 10 -12 29 9 19 21 51 28
40 9 -4 -5 10 -1 31 10 36 20 64 20 34 1 -12 -8 -9 -10 10 -11 14 0 19 -3 12
-6 -6 -2 -9 -10 -5 -15 4 -8 -8 -9 -40 -5 -38 5 -45 4 -41 -8 5 -12 -3 -15
-37 -15 -32 0 -40 -3 -29 -10 11 -7 6 -10 -20 -10 -69 -1 -69 -17 0 -49 80
-38 64 -41 -20 -4 l-61 26 -65 -26 c-86 -36 -95 -33 -14 4 70 32 70 48 0 49
-25 0 -31 3 -20 9 10 7 1 11 -30 13 -29 2 -44 7 -43 15 2 9 -9 11 -44 6 -32
-4 -44 -3 -40 5 4 5 1 13 -5 15 -7 3 -2 6 11 6 20 1 21 3 11 16 -16 19 -7 19
31 0z m622 -302 c-232 -2 -614 -2 -850 0 -235 1 -45 2 422 2 468 0 660 -1 428
-2z m-730 -134 c70 -19 100 -111 54 -165 l-23 -26 33 -33 c29 -29 33 -39 33
-89 0 -31 -4 -56 -9 -56 -13 0 -21 27 -21 71 0 29 -7 47 -25 64 -37 38 -45 32
-45 -40 0 -51 -3 -65 -15 -65 -12 0 -15 14 -15 63 -1 82 -7 187 -16 242 -7 49
-6 50 49 34z m-439 -21 c9 -12 16 -33 16 -47 0 -28 -37 -91 -53 -91 -7 0 2 -9
20 -20 37 -22 53 -48 53 -87 0 -39 -34 -91 -65 -99 -44 -11 -52 0 -60 73 -14
142 -22 278 -18 286 2 4 24 7 48 7 34 0 47 -5 59 -22z m1279 13 c16 -6 29 -23
37 -45 12 -38 5 -62 -32 -102 -19 -21 -19 -21 1 -27 24 -6 61 -63 61 -93 0
-51 -83 -125 -110 -98 -11 11 -26 126 -34 271 -6 89 -5 92 17 96 12 2 25 5 29
6 4 0 18 -3 31 -8z m-1013 -18 c0 -8 -13 -13 -32 -13 l-33 0 -3 -75 -3 -75 36
0 c19 0 35 -4 35 -10 0 -5 -18 -10 -40 -10 l-40 0 0 -54 c0 -30 -3 -61 -6 -70
-5 -13 2 -16 40 -16 25 0 46 -4 46 -10 0 -5 -25 -10 -56 -10 l-57 0 9 118 c5
64 9 144 8 178 l0 60 48 0 c31 -1 48 -5 48 -13z m467 -94 c46 -103 50 -104 28
-14 -19 79 -19 115 0 115 10 0 15 -10 15 -27 0 -16 12 -82 25 -148 29 -138 30
-155 12 -155 -7 0 -33 48 -57 108 -24 59 -50 118 -57 132 -12 23 -13 21 -14
-30 -1 -89 1 -163 8 -197 4 -25 2 -33 -10 -33 -19 0 -27 61 -27 215 0 172 13
177 77 34z m301 74 c44 -63 106 -293 84 -315 -10 -10 -19 11 -40 102 -8 33
-11 35 -54 38 l-45 3 -7 -47 c-3 -26 -6 -60 -6 -75 0 -19 -5 -29 -15 -29 -17
0 -17 -6 -5 165 5 72 13 143 19 158 14 35 44 35 69 0z m542 17 c0 -5 -16 -10
-35 -10 l-35 0 0 -59 c0 -33 -3 -66 -6 -74 -4 -11 5 -17 35 -22 24 -4 38 -11
35 -17 -4 -5 -21 -7 -39 -4 -32 6 -32 6 -39 -40 -3 -26 -6 -60 -6 -76 0 -28 2
-29 38 -26 20 2 38 -1 40 -7 3 -13 -88 -19 -100 -7 -5 5 -4 58 3 128 7 65 12
143 11 172 l0 52 49 0 c27 0 49 -4 49 -10z m-412 -507 c-236 -2 -620 -2 -855
0 -236 1 -43 2 427 2 470 0 663 -1 428 -2z m-443 -147 c16 -11 21 -11 33 0 37
38 122 3 222 -91 82 -77 117 -96 191 -102 46 -5 66 -1 103 17 57 27 67 55 37
105 -11 19 -18 35 -16 35 2 0 20 -14 40 -31 41 -36 47 -81 15 -121 -45 -58
-179 -87 -320 -69 -116 15 -178 35 -241 76 -52 35 -52 36 -73 16 -76 -69 -287
-114 -430 -91 -158 25 -220 108 -141 187 35 35 62 40 33 6 -56 -66 5 -133 119
-133 67 1 125 30 204 105 103 97 176 127 224 91z"/>
<path d="M1131 2064 c0 -11 3 -14 6 -6 3 7 2 16 -1 19 -3 4 -6 -2 -5 -13z"/>
<path d="M1010 2055 c0 -8 4 -15 10 -15 5 0 7 7 4 15 -4 8 -8 15 -10 15 -2 0
-4 -7 -4 -15z"/>
<path d="M1415 2020 c-3 -5 -1 -10 4 -10 6 0 11 5 11 10 0 6 -2 10 -4 10 -3 0
-8 -4 -11 -10z"/>
<path d="M776 1997 c3 -10 9 -15 12 -12 3 3 0 11 -7 18 -10 9 -11 8 -5 -6z"/>
<path d="M817 1258 c3 -35 9 -72 13 -82 6 -19 7 -19 28 2 28 28 29 81 1 116
-36 46 -50 35 -42 -36z"/>
<path d="M314 1289 c3 -17 6 -50 6 -73 l1 -41 29 33 c47 51 37 112 -18 112
-22 0 -24 -3 -18 -31z"/>
<path d="M324 1123 c3 -21 8 -59 12 -85 6 -49 10 -54 30 -40 28 18 42 78 28
117 -6 14 -53 45 -69 45 -4 0 -4 -17 -1 -37z"/>
<path d="M1625 1309 c-4 -5 -4 -38 0 -72 l7 -61 29 32 c33 37 36 58 13 90 -16
23 -39 29 -49 11z"/>
<path d="M1635 1073 c4 -43 9 -81 12 -85 7 -13 34 4 48 33 22 42 18 67 -14
100 -47 47 -54 39 -46 -48z"/>
<path d="M1385 1280 c-3 -5 -8 -39 -12 -75 l-6 -65 47 0 c54 0 54 0 11 98 -25
53 -30 59 -40 42z"/>
</g>
</svg>
