<?xml version="1.0" standalone="no"?>
<!DOCTYPE svg PUBLIC "-//W3C//DTD SVG 20010904//EN"
 "http://www.w3.org/TR/2001/REC-SVG-20010904/DTD/svg10.dtd">
<svg version="1.0" xmlns="http://www.w3.org/2000/svg"
 width="920.000000pt" height="452.000000pt" viewBox="0 0 920.000000 452.000000"
 preserveAspectRatio="xMidYMid meet">

<g transform="translate(0.000000,452.000000) scale(0.100000,-0.100000)"
fill="#000000" stroke="none">
<path d="M3125 3504 c-425 -66 -740 -254 -1257 -752 -175 -168 -252 -229 -356
-281 -95 -48 -172 -64 -272 -58 -201 11 -368 134 -685 505 -71 84 -132 152
-135 152 -3 0 -2 -39 2 -87 98 -1090 734 -1771 1738 -1864 166 -15 457 -6 633
21 723 109 1508 510 1755 897 15 23 30 41 33 40 4 -1 34 -38 67 -83 149 -198
379 -370 717 -534 687 -334 1395 -433 1995 -280 649 166 1110 631 1296 1308
50 182 106 532 92 574 -2 6 -58 -51 -123 -128 -230 -268 -373 -403 -494 -463
-203 -103 -401 -76 -610 82 -38 29 -144 125 -237 213 -188 180 -290 269 -409
361 -462 351 -901 459 -1429 352 -202 -41 -390 -117 -545 -222 -92 -62 -227
-190 -277 -263 -20 -30 -38 -54 -39 -54 -1 0 -25 31 -54 69 -100 135 -257 259
-437 346 -277 135 -672 195 -969 149z"/>
</g>
</svg>
